<svg xmlns="http://www.w3.org/2000/svg" width="1000" height="620" viewBox="0 0 1000 620">
  <defs>
    <linearGradient id="g" x1="0" x2="1" y1="0" y2="1"><stop offset="0" stop-color="#fff7ed"/><stop offset="1" stop-color="#ffedd5"/></linearGradient>
    <filter id="s" x="-10%" y="-10%" width="120%" height="130%"><feDropShadow dx="0" dy="18" stdDeviation="20" flood-color="#0f172a" flood-opacity=".14"/></filter>
  </defs>
  <rect width="1000" height="620" fill="url(#g)"/>
  <rect x="90" y="72" width="820" height="476" rx="28" fill="#ffffff" filter="url(#s)"/>
  <rect x="90" y="72" width="820" height="70" rx="28" fill="#0f172a"/>
  <circle cx="130" cy="107" r="9" fill="#fb7185"/><circle cx="158" cy="107" r="9" fill="#fbbf24"/><circle cx="186" cy="107" r="9" fill="#34d399"/>
  <rect x="230" y="95" width="250" height="24" rx="12" fill="#334155"/>
  <rect x="120" y="168" width="190" height="330" rx="18" fill="#f8fafc" stroke="#e2e8f0"/>
  <rect x="145" y="197" width="120" height="16" rx="8" fill="#f97316" opacity=".9"/>
  <rect x="145" y="232" width="135" height="14" rx="7" fill="#cbd5e1"/>
  <rect x="145" y="263" width="110" height="14" rx="7" fill="#cbd5e1"/>
  <rect x="145" y="294" width="140" height="14" rx="7" fill="#cbd5e1"/>
  <rect x="145" y="325" width="105" height="14" rx="7" fill="#cbd5e1"/>
  <rect x="340" y="168" width="520" height="62" rx="18" fill="#fff7ed" stroke="#fed7aa"/>
  <text x="370" y="207" font-family="Arial, sans-serif" font-size="28" font-weight="700" fill="#0f172a">Assignment Modal</text>
  <rect x="340" y="258" width="150" height="96" rx="18" fill="#f8fafc" stroke="#e2e8f0"/>
  <rect x="515" y="258" width="150" height="96" rx="18" fill="#f8fafc" stroke="#e2e8f0"/>
  <rect x="690" y="258" width="170" height="96" rx="18" fill="#f8fafc" stroke="#e2e8f0"/>
  <rect x="365" y="286" width="88" height="14" rx="7" fill="#f97316" opacity=".85"/>
  <rect x="540" y="286" width="85" height="14" rx="7" fill="#f97316" opacity=".85"/>
  <rect x="715" y="286" width="95" height="14" rx="7" fill="#f97316" opacity=".85"/>
  <rect x="365" y="318" width="95" height="12" rx="6" fill="#cbd5e1"/>
  <rect x="540" y="318" width="88" height="12" rx="6" fill="#cbd5e1"/>
  <rect x="715" y="318" width="105" height="12" rx="6" fill="#cbd5e1"/>
  <rect x="340" y="382" width="520" height="118" rx="18" fill="#ffffff" stroke="#e2e8f0"/>
  <rect x="365" y="412" width="460" height="14" rx="7" fill="#e2e8f0"/>
  <rect x="365" y="446" width="390" height="14" rx="7" fill="#e2e8f0"/>
  <rect x="365" y="480" width="430" height="14" rx="7" fill="#e2e8f0"/>
  <text x="500" y="570" font-family="Arial, sans-serif" font-size="16" text-anchor="middle" fill="#64748b">Illustration placeholder — replace with your own system screenshot</text>
</svg>